<svg xmlns="http://www.w3.org/2000/svg" width="24.603" height="20" viewBox="0 0 24.603 20">
  <path id="surface1" d="M28.6,8.617a10.06,10.06,0,0,1-2.9.792,5.064,5.064,0,0,0,2.218-2.791,10.169,10.169,0,0,1-3.2,1.226A5.048,5.048,0,0,0,15.985,11.3a4.871,4.871,0,0,0,.133,1.149A14.308,14.308,0,0,1,5.712,7.171a5.053,5.053,0,0,0,1.562,6.74,5.019,5.019,0,0,1-2.29-.634v.065a5.046,5.046,0,0,0,4.05,4.949,5.025,5.025,0,0,1-2.28.089,5.056,5.056,0,0,0,4.714,3.508A10.123,10.123,0,0,1,4,23.974,14.353,14.353,0,0,0,26.1,11.88c0-.216-.008-.437-.017-.653A10.338,10.338,0,0,0,28.6,8.618Z" transform="translate(-4 -6.244)" fill="#fff"/>
</svg>
